<mxfile host="app.diagrams.net" modified="2024-04-23T15:40:55.086Z" agent="Mozilla/5.0 (X11; Ubuntu; Linux x86_64; rv:124.0) Gecko/20100101 Firefox/124.0" etag="fa8GTkZ7-k1MusJX2_oF" version="24.2.8" type="device">
  <diagram name="Página-1" id="cE0XUju_YS0Qz5RBgs2V">
    <mxGraphModel dx="880" dy="478" grid="1" gridSize="10" guides="1" tooltips="1" connect="1" arrows="1" fold="1" page="1" pageScale="1" pageWidth="827" pageHeight="1169" math="0" shadow="0">
      <root>
        <mxCell id="0" />
        <mxCell id="1" parent="0" />
        <mxCell id="QrRAiKmrcHZ9wGBXE20P-1" value="" style="shape=folder;fontStyle=1;spacingTop=10;tabWidth=130;tabHeight=30;tabPosition=left;html=1;whiteSpace=wrap;" vertex="1" parent="1">
          <mxGeometry x="240" y="80" width="260" height="110" as="geometry" />
        </mxCell>
        <mxCell id="QrRAiKmrcHZ9wGBXE20P-3" value="Presentación" style="text;align=center;fontStyle=1;verticalAlign=middle;spacingLeft=3;spacingRight=3;strokeColor=none;rotatable=0;points=[[0,0.5],[1,0.5]];portConstraint=eastwest;html=1;" vertex="1" parent="1">
          <mxGeometry x="240" y="80" width="130" height="26" as="geometry" />
        </mxCell>
        <mxCell id="QrRAiKmrcHZ9wGBXE20P-4" value="Interfaz de usuario" style="shape=module;align=left;spacingLeft=20;align=center;verticalAlign=top;whiteSpace=wrap;html=1;" vertex="1" parent="1">
          <mxGeometry x="255" y="130" width="100" height="50" as="geometry" />
        </mxCell>
        <mxCell id="QrRAiKmrcHZ9wGBXE20P-5" value="Interfaz administrador" style="shape=module;align=left;spacingLeft=20;align=center;verticalAlign=top;whiteSpace=wrap;html=1;" vertex="1" parent="1">
          <mxGeometry x="380" y="130" width="100" height="50" as="geometry" />
        </mxCell>
        <mxCell id="QrRAiKmrcHZ9wGBXE20P-6" value="" style="shape=folder;fontStyle=1;spacingTop=10;tabWidth=130;tabHeight=30;tabPosition=left;html=1;whiteSpace=wrap;" vertex="1" parent="1">
          <mxGeometry x="240" y="220" width="260" height="180" as="geometry" />
        </mxCell>
        <mxCell id="QrRAiKmrcHZ9wGBXE20P-7" value="Lógica de empresa" style="text;align=center;fontStyle=1;verticalAlign=middle;spacingLeft=3;spacingRight=3;strokeColor=none;rotatable=0;points=[[0,0.5],[1,0.5]];portConstraint=eastwest;html=1;" vertex="1" parent="1">
          <mxGeometry x="240" y="220" width="130" height="26" as="geometry" />
        </mxCell>
        <mxCell id="QrRAiKmrcHZ9wGBXE20P-8" value="Gestión de empleados" style="shape=module;align=left;spacingLeft=20;align=center;verticalAlign=top;whiteSpace=wrap;html=1;" vertex="1" parent="1">
          <mxGeometry x="250" y="260" width="100" height="50" as="geometry" />
        </mxCell>
        <mxCell id="QrRAiKmrcHZ9wGBXE20P-9" value="Gestión de usuarios" style="shape=module;align=left;spacingLeft=20;align=center;verticalAlign=top;whiteSpace=wrap;html=1;" vertex="1" parent="1">
          <mxGeometry x="380" y="260" width="100" height="50" as="geometry" />
        </mxCell>
        <mxCell id="QrRAiKmrcHZ9wGBXE20P-10" value="Creación de facturas" style="shape=module;align=left;spacingLeft=20;align=center;verticalAlign=top;whiteSpace=wrap;html=1;" vertex="1" parent="1">
          <mxGeometry x="250" y="330" width="100" height="50" as="geometry" />
        </mxCell>
        <mxCell id="QrRAiKmrcHZ9wGBXE20P-11" value="Envio de notificaciones" style="shape=module;align=left;spacingLeft=20;align=center;verticalAlign=top;whiteSpace=wrap;html=1;" vertex="1" parent="1">
          <mxGeometry x="380" y="330" width="100" height="50" as="geometry" />
        </mxCell>
        <mxCell id="QrRAiKmrcHZ9wGBXE20P-14" value="" style="group" vertex="1" connectable="0" parent="1">
          <mxGeometry x="10" y="200" width="160" height="110" as="geometry" />
        </mxCell>
        <mxCell id="QrRAiKmrcHZ9wGBXE20P-12" value="" style="shape=folder;fontStyle=1;spacingTop=10;tabWidth=90;tabHeight=30;tabPosition=left;html=1;whiteSpace=wrap;" vertex="1" parent="QrRAiKmrcHZ9wGBXE20P-14">
          <mxGeometry width="160" height="110" as="geometry" />
        </mxCell>
        <mxCell id="QrRAiKmrcHZ9wGBXE20P-13" value="BBDD" style="text;align=center;fontStyle=1;verticalAlign=middle;spacingLeft=3;spacingRight=3;strokeColor=none;rotatable=0;points=[[0,0.5],[1,0.5]];portConstraint=eastwest;html=1;" vertex="1" parent="QrRAiKmrcHZ9wGBXE20P-14">
          <mxGeometry x="10" width="65.45454545454545" height="26" as="geometry" />
        </mxCell>
        <mxCell id="QrRAiKmrcHZ9wGBXE20P-20" value="" style="group" vertex="1" connectable="0" parent="1">
          <mxGeometry x="10" y="80" width="160" height="110" as="geometry" />
        </mxCell>
        <mxCell id="QrRAiKmrcHZ9wGBXE20P-16" value="" style="shape=folder;fontStyle=1;spacingTop=10;tabWidth=100;tabHeight=30;tabPosition=left;html=1;whiteSpace=wrap;" vertex="1" parent="QrRAiKmrcHZ9wGBXE20P-20">
          <mxGeometry width="160" height="110" as="geometry" />
        </mxCell>
        <mxCell id="QrRAiKmrcHZ9wGBXE20P-17" value="Servidor Web" style="text;align=center;fontStyle=1;verticalAlign=middle;spacingLeft=3;spacingRight=3;strokeColor=none;rotatable=0;points=[[0,0.5],[1,0.5]];portConstraint=eastwest;html=1;" vertex="1" parent="QrRAiKmrcHZ9wGBXE20P-20">
          <mxGeometry x="9.998888888888889" width="71.11111111111111" height="26" as="geometry" />
        </mxCell>
      </root>
    </mxGraphModel>
  </diagram>
</mxfile>
